<svg width="39" height="41" viewBox="0 0 39 41" fill="none" xmlns="http://www.w3.org/2000/svg">
<g clip-path="url(#clip0_14_52)">
<path d="M37.9767 31.3481L30.0829 25.9825C29.0812 25.3071 27.7384 25.5293 26.9978 26.4932L24.6985 29.5066C24.403 29.9037 23.8658 30.0189 23.4383 29.7769L23.0009 29.5311C21.551 28.7255 19.7469 27.7227 16.112 24.0164C12.477 20.3102 11.4911 18.4699 10.7008 16.9948L10.461 16.549C10.2203 16.1133 10.3311 15.5635 10.7209 15.2599L13.6754 12.9169C14.6207 12.162 14.839 10.7937 14.1771 9.77239L8.91288 1.7266C8.23452 0.686548 6.87353 0.37433 5.82335 1.01778L2.52247 3.03882C1.48532 3.6603 0.7244 4.66682 0.39927 5.84746C-0.789368 10.2618 0.104833 17.8803 11.1155 29.1044C19.8743 38.0312 26.3948 40.4319 30.8765 40.4319C31.908 40.4364 32.9354 40.2996 33.9311 40.0252C35.0896 39.6942 36.0773 38.9185 36.6867 37.8611L38.6715 34.4986C39.3037 33.428 38.9975 32.0399 37.9767 31.3481ZM37.5516 33.8189L35.5714 37.1834C35.1338 37.9466 34.4235 38.5078 33.5891 38.7494C29.5909 39.8682 22.6058 38.9415 12.0351 28.1672C1.46438 17.3929 0.555247 10.2738 1.65295 6.19795C1.89027 5.34653 2.44152 4.62157 3.19124 4.1749L6.49212 2.1565C6.94778 1.87704 7.53849 2.0125 7.83285 2.46383L10.6924 6.83977L13.0926 10.5089C13.38 10.9519 13.2856 11.5457 12.8755 11.8735L9.92041 14.2165C9.0211 14.9174 8.76429 16.1856 9.31798 17.1921L9.55263 17.6267C10.3832 19.1794 11.4159 21.111 15.186 24.9531C18.9561 28.7951 20.8506 29.8477 22.3733 30.6943L22.8002 30.934C23.7876 31.4983 25.032 31.2366 25.7196 30.32L28.0183 27.308C28.34 26.8903 28.9223 26.7941 29.3571 27.0867L37.2502 32.4524C37.6933 32.7522 37.8262 33.3545 37.5516 33.8189Z" fill="#FF7D34"/>
<path d="M22.0989 7.31063C28.1979 7.31754 33.1404 12.3553 33.1472 18.5718C33.1472 18.9377 33.4382 19.2342 33.7971 19.2342C34.1561 19.2342 34.447 18.9377 34.447 18.5718C34.4395 11.6239 28.9155 5.99345 22.0989 5.98584C21.7399 5.98584 21.449 6.28238 21.449 6.64824C21.449 7.01409 21.7399 7.31063 22.0989 7.31063Z" fill="#FF7D34"/>
<path d="M22.0989 11.2852C26.0452 11.29 29.2432 14.5496 29.2478 18.5719C29.2478 18.9378 29.5388 19.2343 29.8977 19.2343C30.2566 19.2343 30.5476 18.9378 30.5476 18.5719C30.5422 13.8181 26.7627 9.96588 22.0989 9.96045C21.7399 9.96045 21.449 10.257 21.449 10.6228C21.449 10.9887 21.7399 11.2852 22.0989 11.2852Z" fill="#FF7D34"/>
<path d="M22.0989 15.2596C23.8926 15.2618 25.3462 16.7434 25.3484 18.5717C25.3484 18.9376 25.6394 19.2341 25.9983 19.2341C26.3571 19.2341 26.6482 18.9376 26.6482 18.5717C26.6453 16.0121 24.6102 13.9377 22.0989 13.9348C21.7399 13.9348 21.449 14.2314 21.449 14.5972C21.449 14.9631 21.7399 15.2596 22.0989 15.2596Z" fill="#FF7D34"/>
</g>
<defs>
<clipPath id="clip0_14_52">
<rect width="39" height="39.7512" fill="white" transform="translate(0 0.682129)"/>
</clipPath>
</defs>
</svg>
